HIERARCHY
ROOT Hips
{
  OFFSET 5.84602e-005 68.8428 3.50346
  CHANNELS 6 Xposition Yposition Zposition Zrotation Xrotation Yrotation
  JOINT Spine
  {
    OFFSET 0 8.597 -4.6522
    CHANNELS 3 Zrotation Xrotation Yrotation
    JOINT Spine1
    {
      OFFSET 0 7.8454 0.4098
      CHANNELS 3 Zrotation Xrotation Yrotation
      JOINT Spine2
      {
        OFFSET 0 9.7078 -2.1609
        CHANNELS 3 Zrotation Xrotation Yrotation
        JOINT Neck
        {
          OFFSET 0 21.8761 -0.4549
          CHANNELS 3 Zrotation Xrotation Yrotation
          JOINT Head
          {
            OFFSET 0 12.3537 3.3602
            CHANNELS 3 Zrotation Xrotation Yrotation
            End Site
            {
              OFFSET 0.0001 18.9506 0.5657
            }
          }
        }
        JOINT LeftShoulder
        {
          OFFSET 2.2086 21.1115 7.2329
          CHANNELS 3 Zrotation Xrotation Yrotation
          JOINT LeftArm
          {
            OFFSET 13.1193 3.0282 -4.8998
            CHANNELS 3 Zrotation Xrotation Yrotation
            JOINT LeftForeArm
            {
              OFFSET 27.4081 -0.0973053 -0.2375
              CHANNELS 3 Zrotation Xrotation Yrotation
              JOINT LeftHand
              {
                OFFSET 22.8641 0.0662994 -0.1369
                CHANNELS 3 Zrotation Xrotation Yrotation
                JOINT LeftHandIndex1
                {
                  OFFSET 8.8614 0.775009 2.4612
                  CHANNELS 3 Zrotation Xrotation Yrotation
                  JOINT LeftHandIndex2
                  {
                    OFFSET 3.3146 -0.808304 0.5841
                    CHANNELS 3 Zrotation Xrotation Yrotation
                    JOINT LeftHandIndex3
                    {
                      OFFSET 2.2628 -0.552002 0.3989
                      CHANNELS 3 Zrotation Xrotation Yrotation
                      End Site
                      {
                        OFFSET 1.6102 -0.4807 0.2612
                      }
                    }
                  }
                }
                JOINT LeftHandMiddle1
                {
                  OFFSET 8.9937 0.895004 0.2143
                  CHANNELS 3 Zrotation Xrotation Yrotation
                  JOINT LeftHandMiddle2
                  {
                    OFFSET 4.0984 0.0113983 -0.0242
                    CHANNELS 3 Zrotation Xrotation Yrotation
                    JOINT LeftHandMiddle3
                    {
                      OFFSET 2.2716 0.00689697 -0.0138001
                      CHANNELS 3 Zrotation Xrotation Yrotation
                      End Site
                      {
                        OFFSET 2.0404 -0.1441 0.0027
                      }
                    }
                  }
                }
                JOINT LeftHandRing1
                {
                  OFFSET 8.5234 0.597198 -2.0164
                  CHANNELS 3 Zrotation Xrotation Yrotation
                  JOINT LeftHandRing2
                  {
                    OFFSET 3.7188 -0.188293 -0.2328
                    CHANNELS 3 Zrotation Xrotation Yrotation
                    JOINT LeftHandRing3
                    {
                      OFFSET 2.1191 -0.106598 -0.1332
                      CHANNELS 3 Zrotation Xrotation Yrotation
                      End Site
                      {
                        OFFSET 1.8737 -0.2304 -0.0886
                      }
                    }
                  }
                }
                JOINT LeftHandPinky1
                {
                  OFFSET 7.9094 -0.601089 -3.4825
                  CHANNELS 3 Zrotation Xrotation Yrotation
                  JOINT LeftHandPinky2
                  {
                    OFFSET 2.2874 -0.477005 -0.6314
                    CHANNELS 3 Zrotation Xrotation Yrotation
                    JOINT LeftHandPinky3
                    {
                      OFFSET 1.6774 -0.349396 -0.4633
                      CHANNELS 3 Zrotation Xrotation Yrotation
                      End Site
                      {
                        OFFSET 1.4888 -0.4091 -0.3416
                      }
                    }
                  }
                }
                JOINT LeftHandThumb1
                {
                  OFFSET 1.833 -1.3875 1.3896
                  CHANNELS 3 Zrotation Xrotation Yrotation
                  JOINT LeftHandThumb2
                  {
                    OFFSET 3.4129 -1.121 2.5732
                    CHANNELS 3 Zrotation Xrotation Yrotation
                    JOINT LeftHandThumb3
                    {
                      OFFSET 2.2474 -0.804199 1.6192
                      CHANNELS 3 Zrotation Xrotation Yrotation
                      End Site
                      {
                        OFFSET 1.6527 -0.5689 1.1317
                      }
                    }
                  }
                }
              }
            }
          }
        }
        JOINT RightShoulder
        {
          OFFSET -2.2086 21.1115 7.2329
          CHANNELS 3 Zrotation Xrotation Yrotation
          JOINT RightArm
          {
            OFFSET -13.1216 3.0287 -4.9007
            CHANNELS 3 Zrotation Xrotation Yrotation
            JOINT RightForeArm
            {
              OFFSET -27.4081 -0.0973053 -0.2375
              CHANNELS 3 Zrotation Xrotation Yrotation
              JOINT RightHand
              {
                OFFSET -22.8641 0.0664063 -0.1369
                CHANNELS 3 Zrotation Xrotation Yrotation
                JOINT RightHandIndex1
                {
                  OFFSET -8.8614 0.774994 2.4612
                  CHANNELS 3 Zrotation Xrotation Yrotation
                  JOINT RightHandIndex2
                  {
                    OFFSET -3.3146 -0.808304 0.5841
                    CHANNELS 3 Zrotation Xrotation Yrotation
                    JOINT RightHandIndex3
                    {
                      OFFSET -2.2628 -0.552002 0.3989
                      CHANNELS 3 Zrotation Xrotation Yrotation
                      End Site
                      {
                        OFFSET -1.6102 -0.4807 0.2612
                      }
                    }
                  }
                }
                JOINT RightHandMiddle1
                {
                  OFFSET -8.9937 0.894989 0.2143
                  CHANNELS 3 Zrotation Xrotation Yrotation
                  JOINT RightHandMiddle2
                  {
                    OFFSET -4.0984 0.0113983 -0.0242
                    CHANNELS 3 Zrotation Xrotation Yrotation
                    JOINT RightHandMiddle3
                    {
                      OFFSET -2.2716 0.00691223 -0.0138001
                      CHANNELS 3 Zrotation Xrotation Yrotation
                      End Site
                      {
                        OFFSET -2.0404 -0.1441 0.0027
                      }
                    }
                  }
                }
                JOINT RightHandRing1
                {
                  OFFSET -8.5234 0.597198 -2.0164
                  CHANNELS 3 Zrotation Xrotation Yrotation
                  JOINT RightHandRing2
                  {
                    OFFSET -3.7188 -0.188309 -0.2328
                    CHANNELS 3 Zrotation Xrotation Yrotation
                    JOINT RightHandRing3
                    {
                      OFFSET -2.1191 -0.106598 -0.1332
                      CHANNELS 3 Zrotation Xrotation Yrotation
                      End Site
                      {
                        OFFSET -1.8737 -0.2304 -0.0886
                      }
                    }
                  }
                }
                JOINT RightHandPinky1
                {
                  OFFSET -7.9094 -0.601105 -3.4825
                  CHANNELS 3 Zrotation Xrotation Yrotation
                  JOINT RightHandPinky2
                  {
                    OFFSET -2.2874 -0.477005 -0.6314
                    CHANNELS 3 Zrotation Xrotation Yrotation
                    JOINT RightHandPinky3
                    {
                      OFFSET -1.6774 -0.349396 -0.4633
                      CHANNELS 3 Zrotation Xrotation Yrotation
                      End Site
                      {
                        OFFSET -1.4888 -0.4091 -0.3416
                      }
                    }
                  }
                }
                JOINT RightHandThumb1
                {
                  OFFSET -1.833 -1.38751 1.3896
                  CHANNELS 3 Zrotation Xrotation Yrotation
                  JOINT RightHandThumb2
                  {
                    OFFSET -3.41299 -1.12099 2.5732
                    CHANNELS 3 Zrotation Xrotation Yrotation
                    JOINT RightHandThumb3
                    {
                      OFFSET -2.24741 -0.804108 1.6192
                      CHANNELS 3 Zrotation Xrotation Yrotation
                      End Site
                      {
                        OFFSET -1.6527 -0.5689 1.1317
                      }
                    }
                  }
                }
              }
            }
          }
        }
      }
    }
  }
  JOINT RightUpLeg
  {
    OFFSET -9.1966 3.8861 -0.7581
    CHANNELS 3 Zrotation Xrotation Yrotation
    JOINT RightLeg
    {
      OFFSET -0.7359 -41.0265 0
      CHANNELS 3 Zrotation Xrotation Yrotation
      JOINT RightFoot
      {
        OFFSET 0 -40.2855 0
        CHANNELS 3 Zrotation Xrotation Yrotation
        JOINT RightToeBase
        {
          OFFSET 0 -5.6122 11.7359
          CHANNELS 3 Zrotation Xrotation Yrotation
          End Site
          {
            OFFSET 0 0 7.8731
          }
        }
      }
    }
  }
  JOINT LeftUpLeg
  {
    OFFSET 9.1965 3.8864 -0.7581
    CHANNELS 3 Zrotation Xrotation Yrotation
    JOINT LeftLeg
    {
      OFFSET 0.7359 -41.0268 0
      CHANNELS 3 Zrotation Xrotation Yrotation
      JOINT LeftFoot
      {
        OFFSET 0 -40.2855 0
        CHANNELS 3 Zrotation Xrotation Yrotation
        JOINT LeftToeBase
        {
          OFFSET 0 -5.6122 11.7359
          CHANNELS 3 Zrotation Xrotation Yrotation
          End Site
          {
            OFFSET 0 0 7.8731
          }
        }
      }
    }
  }
}
MOTION
Frames:	5
Frame Time:	0.0333333
-51.6635 30.4403 12.2783 -6.894e-015 1.00189 180 -0.0248746 4.47825 -0.237778 -0.0311841 8.95655 -0.475791 -0.0311841 8.95656 -0.475791 -2.02939e-006 -10.4708 9.51689e-007 -1.16331e-008 1.37444 1.45962e-007 21.5658 -26.167 1.38941 -56.7544 13.2387 -66.7159 -17.5413 2.4012 -80.9 -39.8281 0.521094 -11.8681 1.06468e-007 9.06937e-008 -9.4043e-007 -6.88463e-007 -1.34259e-008 -6.49433e-007 -3.97466e-007 -5.20598e-008 1.45499e-007 1.06468e-007 9.06937e-008 -9.4043e-007 -0.0146391 -8.4519e-005 -1.15829e-006 -3.97463e-007 -5.20784e-008 1.45492e-007 1.06468e-007 9.06937e-008 -9.4043e-007 -0.0186937 -0.00116893 5.83612e-005 -3.97461e-007 -5.20832e-008 1.45494e-007 1.06468e-007 9.06937e-008 -9.4043e-007 -0.0121519 -0.00322175 0.00067061 -3.9746e-007 -5.20724e-008 1.45504e-007 1.06468e-007 9.06937e-008 -9.4043e-007 -6.88463e-007 -1.34259e-008 -6.49433e-007 -3.97466e-007 -5.20598e-008 1.45499e-007 -4.10436 -10.4004 5.06243 51.5998 4.35187 56.6653 19.904 5.37914 90.1687 49.6912 -18.2187 18.0022 -2.89444e-007 -3.39683e-008 -1.86453e-006 -6.78995e-007 4.09276e-006 -2.44502e-007 -9.77369e-007 8.82229e-008 -1.37585e-006 -2.89444e-007 -3.39683e-008 -1.86453e-006 0.0149656 -9.81751e-005 -1.15481e-006 -9.77338e-007 8.8043e-008 -1.37586e-006 -2.89444e-007 -3.39683e-008 -1.86453e-006 0.0190419 -0.00118914 -5.75063e-005 -9.77343e-007 8.79913e-008 -1.37585e-006 -2.89444e-007 -3.39683e-008 -1.86453e-006 0.0122647 -0.00324723 -0.00067834 -9.85133e-007 1.70881e-006 -1.66583e-006 -2.89444e-007 -3.39683e-008 -1.86453e-006 -6.78995e-007 4.09276e-006 -2.44502e-007 -9.77369e-007 8.82229e-008 -1.37585e-006 -11.1091 -6.53919 -13.8016 -166.361 74.1907 166.313 -2.20251 32.9969 -5.16632 -1.08034e-006 -9.79511e-008 -3.18577e-007 13.0228 -6.67944 13.1381 166.275 74.2554 -166.238 2.64703 33.525 2.83313 1.82742e-006 -9.71056e-008 -8.32445e-008 
-51.6634 30.209 12.4564 -6.894e-015 1.00189 180 -0.0248746 4.47825 -0.237778 -0.0311841 8.95655 -0.475791 -0.0311841 8.95656 -0.475791 -4.60413e-006 -11.0671 -2.32661e-006 -3.37483e-008 0.58001 9.3481e-008 21.5658 -26.167 1.38941 -56.7544 13.2387 -66.7159 -17.5413 2.40121 -80.9 -39.8281 0.521096 -11.8681 1.6163e-007 1.59214e-006 -8.73415e-007 -1.03556e-006 4.12217e-006 -1.46432e-006 -3.97466e-007 -5.20599e-008 1.45499e-007 1.6163e-007 1.59214e-006 -8.73415e-007 -0.0145912 -8.6329e-005 2.39755e-007 -3.97463e-007 -5.20784e-008 1.45492e-007 1.6163e-007 1.59214e-006 -8.73415e-007 -0.0186872 -0.00116586 5.78072e-005 -3.97461e-007 -5.20832e-008 1.45494e-007 1.6163e-007 1.59214e-006 -8.73415e-007 -0.0121512 -0.0032182 0.000667653 -3.9746e-007 -5.20724e-008 1.45504e-007 1.6163e-007 1.59214e-006 -8.73415e-007 -1.03556e-006 4.12217e-006 -1.46432e-006 -3.97466e-007 -5.20599e-008 1.45499e-007 -4.10436 -10.4004 5.06243 51.5998 4.35186 56.6653 19.904 5.37914 90.1687 49.6912 -18.2187 18.0022 -9.77369e-007 8.82231e-008 -1.37585e-006 6.87925e-007 -1.22191e-007 -4.88685e-007 1.33042e-006 9.41287e-006 -6.24637e-007 -9.77369e-007 8.82231e-008 -1.37585e-006 0.0149612 -9.17898e-005 9.96191e-007 1.33021e-006 9.41279e-006 -6.25867e-007 -9.77369e-007 8.82231e-008 -1.37585e-006 0.0190409 -0.00119311 -6.02594e-005 1.33015e-006 9.41279e-006 -6.26214e-007 -9.77369e-007 8.82231e-008 -1.37585e-006 0.0122917 -0.00325362 -0.000678465 1.33018e-006 9.41286e-006 -6.25675e-007 -9.77369e-007 8.82231e-008 -1.37585e-006 6.87925e-007 -1.22191e-007 -4.88685e-007 1.33042e-006 9.41287e-006 -6.24637e-007 -11.1667 -6.86601 -13.8883 -166.623 73.6857 166.538 -2.19018 32.9957 -5.18737 4.42217e-008 1.27224e-008 9.62855e-008 13.0616 -7.01097 13.1966 166.542 73.7525 -166.468 2.63456 33.5242 2.8541 4.41478e-008 -1.29903e-008 9.62868e-008 
-51.6633 30.0024 12.6156 -6.894e-015 1.00189 180 -0.0248746 4.47825 -0.237778 -0.0311841 8.95655 -0.475791 -0.0311841 8.95656 -0.475791 2.41208e-008 -11.6001 8.7272e-007 -3.82978e-009 -0.130127 5.27026e-007 21.5658 -26.167 1.38941 -56.7544 13.2387 -66.7159 -17.5413 2.40121 -80.9 -39.8281 0.521096 -11.8681 -3.97466e-007 -5.20599e-008 1.45499e-007 1.59028e-015 3.18055e-015 4.77083e-015 -3.97466e-007 -5.20599e-008 1.45499e-007 -3.97466e-007 -5.20599e-008 1.45499e-007 -0.0146161 -8.39442e-005 -1.3669e-006 -3.97463e-007 -5.20785e-008 1.45492e-007 -3.97466e-007 -5.20599e-008 1.45499e-007 -0.0187225 -0.0011744 5.82188e-005 -4.74135e-007 1.67812e-006 8.78059e-008 -3.97466e-007 -5.20599e-008 1.45499e-007 -0.0121816 -0.00322646 0.00067073 -3.9746e-007 -5.20725e-008 1.45504e-007 -3.97466e-007 -5.20599e-008 1.45499e-007 1.59028e-015 3.18055e-015 4.77083e-015 -3.97466e-007 -5.20599e-008 1.45499e-007 -4.10436 -10.4004 5.06243 51.5998 4.35186 56.6653 19.904 5.37914 90.1687 49.6912 -18.2187 18.0022 -9.77369e-007 8.82231e-008 -1.37585e-006 6.87925e-007 -1.22191e-007 -4.88685e-007 1.33042e-006 9.41287e-006 -6.24637e-007 -9.77369e-007 8.82231e-008 -1.37585e-006 0.0149612 -9.17898e-005 9.96191e-007 1.33021e-006 9.41279e-006 -6.25867e-007 -9.77369e-007 8.82231e-008 -1.37585e-006 0.0190409 -0.00119311 -6.02594e-005 1.33015e-006 9.41279e-006 -6.26214e-007 -9.77369e-007 8.82231e-008 -1.37585e-006 0.0122917 -0.00325362 -0.000678465 1.33018e-006 9.41286e-006 -6.25675e-007 -9.77369e-007 8.82231e-008 -1.37585e-006 6.87925e-007 -1.22191e-007 -4.88685e-007 1.33042e-006 9.41287e-006 -6.24637e-007 -11.2184 -7.158 -13.9665 -166.845 73.2341 166.727 -2.17906 32.9946 -5.20634 6.83021e-008 -4.79988e-007 4.39478e-007 13.0965 -7.30703 13.2495 166.768 73.3027 -166.661 2.62332 33.5232 2.87299 -6.60281e-008 1.94827e-008 -1.44519e-007 
-51.6633 29.7958 12.7747 -6.894e-015 1.00189 180 -0.0248746 4.47825 -0.237778 -0.0311841 8.95655 -0.475791 -0.031184 8.95656 -0.475791 -2.9865e-006 -12.133 -1.21717e-006 -4.75343e-008 -0.84071 -1.58344e-007 21.5658 -26.167 1.38941 -56.7544 13.2387 -66.7158 -17.5413 2.40121 -80.9 -39.8281 0.521076 -11.8681 4.77083e-015 6.36111e-015 -3.18055e-015 4.77083e-015 9.54166e-015 -1.59028e-015 -1.59028e-015 6.36111e-015 -3.18055e-015 4.77083e-015 6.36111e-015 -3.18055e-015 -0.0145988 -8.89189e-005 1.33027e-006 0 1.27222e-014 -0 4.77083e-015 6.36111e-015 -3.18055e-015 -0.0186891 -0.00116785 5.85972e-005 -7.66685e-008 1.73019e-006 -5.76874e-008 4.77083e-015 6.36111e-015 -3.18055e-015 -0.012182 -0.00321918 0.000670869 3.18055e-015 6.36111e-015 -1.59028e-015 4.77083e-015 6.36111e-015 -3.18055e-015 4.77083e-015 9.54166e-015 -1.59028e-015 -1.59028e-015 6.36111e-015 -3.18055e-015 -4.10435 -10.4004 5.06243 51.5998 4.35186 56.6653 19.904 5.37915 90.1687 49.6912 -18.2187 18.0022 -9.59671e-007 2.43775e-006 -1.81927e-006 6.87925e-007 -1.22191e-007 -4.88685e-007 1.31272e-006 7.06335e-006 -1.81221e-007 -9.59671e-007 2.43775e-006 -1.81927e-006 0.0149612 -8.61981e-005 -2.68436e-008 1.33021e-006 9.41279e-006 -6.25868e-007 -9.59671e-007 2.43775e-006 -1.81927e-006 0.0190233 -0.00119276 -5.76538e-005 1.33015e-006 9.41279e-006 -6.26214e-007 -9.59671e-007 2.43775e-006 -1.81927e-006 0.0122145 -0.00324025 -0.000671551 1.33018e-006 9.41286e-006 -6.2567e-007 -9.59671e-007 2.43775e-006 -1.81927e-006 6.87925e-007 -1.22191e-007 -4.88685e-007 1.31272e-006 7.06335e-006 -1.81221e-007 -11.2704 -7.44984 -14.0453 -167.055 72.7824 166.905 -2.16789 32.9935 -5.22546 3.29153e-007 3.45018e-006 2.401e-007 13.1314 -7.60288 13.3029 166.981 72.8529 -166.842 2.61201 33.5224 2.89204 4.38895e-008 -1.29866e-008 9.64054e-008 
-51.6632 29.5892 12.9338 -6.894e-015 1.00189 180 -0.0248746 4.47824 -0.237778 -0.0311841 8.95655 -0.475791 -0.0311841 8.95656 -0.475791 -2.47391e-006 -12.6663 -5.69257e-007 4.56937e-008 -1.55169 1.54622e-007 21.5658 -26.167 1.38941 -56.7544 13.2387 -66.7158 -17.5413 2.40121 -80.9 -39.8281 0.521076 -11.8681 1.59028e-015 -6.36111e-015 -1.59028e-015 1.59028e-015 0 -1.59028e-015 4.77083e-015 0 -3.18055e-015 1.59028e-015 -6.36111e-015 -1.59028e-015 -0.0145988 -8.89189e-005 1.33027e-006 -2.64834e-031 9.54166e-015 1.59028e-015 1.59028e-015 -6.36111e-015 -1.59028e-015 -0.0186891 -0.00116785 5.85972e-005 -7.66685e-008 1.73019e-006 -5.76874e-008 1.59028e-015 -6.36111e-015 -1.59028e-015 -0.012182 -0.00321918 0.000670869 4.77083e-015 3.18055e-015 6.36111e-015 1.59028e-015 -6.36111e-015 -1.59028e-015 1.59028e-015 0 -1.59028e-015 4.77083e-015 0 -3.18055e-015 -4.10435 -10.4004 5.06243 51.5998 4.35186 56.6653 19.904 5.37915 90.1687 49.6912 -18.2187 18.0022 -9.59671e-007 2.43775e-006 -1.81927e-006 6.87925e-007 -1.22191e-007 -4.88685e-007 1.31272e-006 7.06335e-006 -1.81221e-007 -9.59671e-007 2.43775e-006 -1.81927e-006 0.0149612 -8.61981e-005 -2.68436e-008 1.33021e-006 9.41279e-006 -6.25868e-007 -9.59671e-007 2.43775e-006 -1.81927e-006 0.0190233 -0.00119276 -5.76538e-005 1.33015e-006 9.41279e-006 -6.26214e-007 -9.59671e-007 2.43775e-006 -1.81927e-006 0.0122145 -0.00324025 -0.000671551 1.33018e-006 9.41286e-006 -6.2567e-007 -9.59671e-007 2.43775e-006 -1.81927e-006 6.87925e-007 -1.22191e-007 -4.88685e-007 1.31272e-006 7.06335e-006 -1.81221e-007 -11.3226 -7.74152 -14.1248 -167.255 72.3305 167.072 -2.15665 32.9924 -5.24473 1.1223e-006 1.10243e-007 4.21105e-007 13.1665 -7.89892 13.3568 167.185 72.4026 -167.013 2.60066 33.5215 2.91123 7.19702e-008 -2.84557e-006 -1.29458e-008 
